<svg width="36" height="36" viewBox="0 0 36 36" fill="none" xmlns="http://www.w3.org/2000/svg">
<rect x="0.25" y="0.25" width="35.5" height="35.5" rx="17.75" stroke="white" stroke-opacity="0.3" stroke-width="0.5"/>
<path d="M16.2643 22.7143H19.739C19.8522 21.6843 20.3778 20.8341 21.231 19.9051C21.3271 19.8005 21.9435 19.1626 22.0166 19.0715C22.7432 18.1655 23.1445 17.0443 23.1445 15.8571C23.1445 13.0168 20.842 10.7143 18.0017 10.7143C15.1614 10.7143 12.8588 13.0168 12.8588 15.8571C12.8588 17.0437 13.2597 18.1643 13.9856 19.0701C14.0589 19.1614 14.6767 19.801 14.7716 19.9044C15.6254 20.8341 16.1511 21.6843 16.2643 22.7143ZM19.716 24.4286H16.2874V25.2857H19.716V24.4286ZM12.6479 20.1422C11.7072 18.9683 11.1445 17.4784 11.1445 15.8571C11.1445 12.07 14.2146 9 18.0017 9C21.7888 9 24.8588 12.07 24.8588 15.8571C24.8588 17.4793 24.2955 18.9699 23.3539 20.1441C22.8222 20.807 21.4302 21.8571 21.4302 23.1429V25.2857C21.4302 26.2325 20.6628 27 19.716 27H16.2874C15.3406 27 14.5731 26.2325 14.5731 25.2857V23.1429C14.5731 21.8571 13.1799 20.8059 12.6479 20.1422ZM18.8588 15.8613H21.0017L17.1445 21.0041V17.5755H15.0017L18.8588 12.4286V15.8613Z" fill="white"/>
</svg>
