<svg width="37" height="36" viewBox="0 0 37 36" fill="none" xmlns="http://www.w3.org/2000/svg">
<rect x="0.917969" y="0.25" width="35.5" height="35.5" rx="17.75" stroke="white" stroke-opacity="0.3" stroke-width="0.5"/>
<g clip-path="url(#clip0_1433_1002)">
<path d="M18.668 27C13.6974 27 9.66797 22.9705 9.66797 18C9.66797 13.0294 13.6974 9 18.668 9C23.6385 9 27.668 13.0294 27.668 18C27.668 22.9705 23.6385 27 18.668 27ZM18.668 25.2C22.6444 25.2 25.868 21.9765 25.868 18C25.868 14.0235 22.6444 10.8 18.668 10.8C14.6915 10.8 11.468 14.0235 11.468 18C11.468 21.9765 14.6915 25.2 18.668 25.2ZM14.168 18.9H15.968C15.968 20.3912 17.1768 21.6 18.668 21.6C20.1592 21.6 21.368 20.3912 21.368 18.9H23.168C23.168 21.3853 21.1532 23.4 18.668 23.4C16.1827 23.4 14.168 21.3853 14.168 18.9ZM15.068 17.1C14.3224 17.1 13.718 16.4956 13.718 15.75C13.718 15.0044 14.3224 14.4 15.068 14.4C15.8136 14.4 16.418 15.0044 16.418 15.75C16.418 16.4956 15.8136 17.1 15.068 17.1ZM22.268 17.1C21.5224 17.1 20.918 16.4956 20.918 15.75C20.918 15.0044 21.5224 14.4 22.268 14.4C23.0135 14.4 23.618 15.0044 23.618 15.75C23.618 16.4956 23.0135 17.1 22.268 17.1Z" fill="white"/>
</g>
<defs>
<clipPath id="clip0_1433_1002">
<rect width="18" height="18" fill="white" transform="translate(9.66797 9)"/>
</clipPath>
</defs>
</svg>
